<svg xmlns="http://www.w3.org/2000/svg" xmlns:xlink="http://www.w3.org/1999/xlink" width="800" zoomAndPan="magnify" viewBox="0 0 600 449.999984" height="600" preserveAspectRatio="xMidYMid meet" version="1.0"><path fill="#2f3032" d="M 203.925781 113.550781 C 202.902344 117.140625 201.878906 120.726562 200.851562 124.3125 C 193.898438 110.011719 196.460938 97.453125 208.539062 86.644531 C 221.878906 78.953125 234.691406 70.496094 246.976562 61.277344 C 253.324219 53.914062 254.347656 45.96875 250.050781 37.445312 C 251.078125 36.421875 252.101562 36.421875 253.125 37.445312 C 262.847656 53.425781 260.285156 67.261719 245.4375 78.957031 C 231.597656 86.136719 219.042969 95.105469 207.769531 105.863281 C 206.46875 108.46875 205.1875 111.03125 203.925781 113.550781 Z M 203.925781 113.550781 " fill-opacity="0.9961" fill-rule="evenodd"/><path fill="#8f9095" d="M 266.964844 68.964844 C 265.675781 69.488281 265.164062 70.515625 265.425781 72.039062 C 264.371094 69.964844 262.835938 68.171875 260.8125 66.65625 C 263.472656 64.28125 265.523438 65.050781 266.964844 68.964844 Z M 266.964844 68.964844 " fill-opacity="0.4392" fill-rule="evenodd"/><path fill="#363738" d="M 328.464844 58.203125 C 336.21875 61.648438 341.089844 67.796875 343.070312 76.652344 C 344.546875 86.5625 341.214844 94.507812 333.078125 100.484375 C 321.902344 104.628906 313.960938 112.058594 309.246094 122.777344 C 304.234375 110.992188 307.054688 101.511719 317.703125 94.332031 C 337.917969 86.910156 341.503906 74.867188 328.464844 58.203125 Z M 328.464844 58.203125 " fill-opacity="1" fill-rule="evenodd"/><path fill="#2f2f31" d="M 266.964844 68.964844 C 274.230469 81.222656 272.691406 92.242188 262.351562 102.019531 C 251.894531 106.351562 242.925781 112.757812 235.445312 121.238281 C 230.625 129.75 231.394531 137.953125 237.75 145.839844 C 236.980469 147.410156 235.957031 147.664062 234.675781 146.609375 C 220.070312 131.90625 220.585938 117.558594 236.214844 103.558594 C 245.34375 98.613281 253.796875 92.71875 261.582031 85.875 C 263.964844 81.554688 265.246094 76.941406 265.425781 72.039062 C 265.164062 70.515625 265.675781 69.488281 266.964844 68.964844 Z M 266.964844 68.964844 " fill-opacity="1" fill-rule="evenodd"/><path fill="#404144" d="M 290.027344 90.488281 C 298.667969 98.402344 300.464844 107.628906 295.40625 118.164062 C 291.796875 121.90625 288.464844 121.90625 285.414062 118.164062 C 287.417969 114.371094 289.722656 110.78125 292.332031 107.402344 C 293.5 101.472656 292.730469 95.835938 290.027344 90.488281 Z M 290.027344 90.488281 " fill-opacity="1" fill-rule="evenodd"/><path fill="#7f8189" d="M 203.925781 113.550781 C 203.925781 117.652344 203.925781 121.75 203.925781 125.851562 C 202.402344 126.117188 201.378906 125.601562 200.851562 124.3125 C 201.878906 120.726562 202.902344 117.140625 203.925781 113.550781 Z M 203.925781 113.550781 " fill-opacity="0.5569" fill-rule="evenodd"/><path fill="#b9bfca" d="M 203.925781 125.851562 C 205.976562 126.878906 205.976562 126.878906 203.925781 125.851562 Z M 203.925781 125.851562 " fill-opacity="0.0078" fill-rule="evenodd"/><path fill="#313133" d="M 388.425781 184.277344 C 387.046875 185.964844 385.765625 185.964844 384.582031 184.277344 C 383.859375 181.59375 382.832031 179.027344 381.507812 176.589844 C 380.792969 177.503906 380.539062 178.527344 380.738281 179.664062 C 369.6875 156.636719 351.238281 143.054688 325.390625 138.921875 C 294.589844 132.964844 268.199219 140.910156 246.207031 162.75 C 234.097656 181.132812 235.378906 198.554688 250.050781 215.027344 C 248.09375 216.085938 248.09375 217.367188 250.050781 218.871094 C 248.515625 219.894531 246.976562 219.894531 245.4375 218.871094 C 241.796875 214.917969 238.722656 210.5625 236.214844 205.800781 C 234.988281 206.503906 234.476562 207.53125 234.675781 208.875 C 225.234375 189.664062 227.542969 171.722656 241.59375 155.0625 C 248.613281 148.867188 256.042969 143.230469 263.890625 138.152344 C 259.242188 129.421875 260.269531 121.476562 266.964844 114.320312 C 273.964844 110.765625 275.246094 111.53125 270.808594 116.625 C 267.507812 122.59375 266.738281 128.742188 268.5 135.078125 C 303.992188 123.710938 337.300781 128.066406 368.4375 148.144531 C 380.171875 157.53125 386.835938 169.574219 388.425781 184.277344 Z M 388.425781 184.277344 " fill-opacity="1" fill-rule="evenodd"/><path fill="#212222" d="M 388.425781 184.277344 C 389.863281 185.917969 390.375 187.96875 389.964844 190.425781 C 402.261719 188.449219 411.742188 192.546875 418.40625 202.726562 C 419.417969 207.964844 421.210938 212.578125 423.789062 216.5625 C 435.148438 216.851562 435.660156 218.386719 425.328125 221.175781 C 423.292969 220.914062 421.5 221.425781 419.945312 222.714844 C 415.679688 248.195312 401.585938 265.621094 377.664062 274.988281 C 372.964844 276.214844 368.351562 277.75 363.828125 279.601562 C 361.683594 292.765625 353.996094 300.710938 340.765625 303.433594 C 320.597656 310.847656 300.609375 310.589844 280.800781 302.664062 C 275.292969 300.027344 270.425781 296.441406 266.195312 291.902344 C 258.394531 270.289062 250.453125 248.765625 242.363281 227.328125 C 241.339844 225.789062 240.316406 224.25 239.289062 222.714844 C 239.144531 219.199219 238.117188 216.125 236.214844 213.488281 C 235.277344 212.121094 234.765625 210.582031 234.675781 208.875 C 234.476562 207.53125 234.988281 206.503906 236.214844 205.800781 C 238.722656 210.5625 241.796875 214.917969 245.4375 218.871094 C 246.976562 219.894531 248.515625 219.894531 250.050781 218.871094 C 248.09375 217.367188 248.09375 216.085938 250.050781 215.027344 C 266.746094 230.789062 286.734375 238.476562 310.015625 238.089844 C 334.703125 238.417969 355.460938 229.707031 372.28125 211.953125 C 379.640625 202.425781 382.460938 191.664062 380.738281 179.664062 C 380.539062 178.527344 380.792969 177.503906 381.507812 176.589844 C 382.832031 179.027344 383.859375 181.59375 384.582031 184.277344 C 385.765625 185.964844 387.046875 185.964844 388.425781 184.277344 Z M 388.425781 184.277344 " fill-opacity="1" fill-rule="evenodd"/><path fill="#f1f3fa" d="M 425.328125 221.175781 C 440.175781 219.882812 446.066406 226.542969 443.007812 241.164062 C 440.707031 246.800781 437.632812 251.921875 433.78125 256.539062 C 422.453125 268.125 410.921875 279.398438 399.1875 290.363281 C 390.765625 287.078125 383.589844 281.953125 377.664062 274.988281 C 401.585938 265.621094 415.679688 248.195312 419.945312 222.714844 C 421.5 221.425781 423.292969 220.914062 425.328125 221.175781 Z M 425.328125 221.175781 " fill-opacity="1" fill-rule="evenodd"/><path fill="#bfc6d1" d="M 393.039062 213.488281 C 401.140625 211.398438 405.238281 214.472656 405.339844 222.714844 C 404.203125 231.792969 400.101562 239.222656 393.039062 245.007812 C 386.121094 249.75 378.945312 254.105469 371.515625 258.078125 C 371.003906 256.796875 370.488281 255.515625 369.976562 254.234375 C 372.792969 243.730469 375.613281 233.222656 378.433594 222.714844 C 379.492188 221.398438 380.773438 220.371094 382.277344 219.640625 C 383.300781 222.203125 384.328125 224.765625 385.351562 227.328125 C 389.910156 223.851562 392.472656 219.238281 393.039062 213.488281 Z M 393.039062 213.488281 " fill-opacity="1" fill-rule="evenodd"/><path fill="#eaedf2" d="M 236.214844 213.488281 C 238.117188 216.125 239.144531 219.199219 239.289062 222.714844 C 214.289062 241.253906 189.945312 260.726562 166.257812 281.140625 C 165.492188 284.691406 165.238281 288.277344 165.488281 291.902344 C 163.144531 283.625 163.910156 275.425781 167.796875 267.300781 C 187.628906 251.621094 207.871094 236.503906 228.527344 221.945312 C 231.40625 219.324219 233.96875 216.507812 236.214844 213.488281 Z M 236.214844 213.488281 " fill-opacity="0.9961" fill-rule="evenodd"/><path fill="#e3e5e6" d="M 380.738281 179.664062 C 382.460938 191.664062 379.640625 202.425781 372.28125 211.953125 C 355.460938 229.707031 334.703125 238.417969 310.015625 238.089844 C 286.734375 238.476562 266.746094 230.789062 250.050781 215.027344 C 235.378906 198.554688 234.097656 181.132812 246.207031 162.75 C 268.199219 140.910156 294.589844 132.964844 325.390625 138.921875 C 351.238281 143.054688 369.6875 156.636719 380.738281 179.664062 Z M 380.738281 179.664062 " fill-opacity="1" fill-rule="evenodd"/><path fill="#2f2f31" d="M 317.703125 142.765625 C 318.15625 145.691406 319.183594 148.253906 320.777344 150.453125 C 323.957031 162.308594 319.855469 170.25 308.476562 174.28125 C 302.835938 175.125 297.195312 175.894531 291.5625 176.589844 C 291.304688 174.554688 291.816406 172.761719 293.101562 171.207031 C 298.621094 168.855469 304.257812 166.804688 310.015625 165.058594 C 315.34375 160.382812 317.394531 154.488281 316.164062 147.375 C 287.0625 143.109375 264.257812 152.84375 247.746094 176.589844 C 245.484375 197.929688 254.457031 212.539062 274.652344 220.40625 C 304.113281 231.398438 332.304688 228.835938 359.214844 212.71875 C 362.09375 210.101562 364.65625 207.28125 366.902344 204.265625 C 370.355469 200.960938 372.660156 196.859375 373.820312 191.964844 C 374.332031 186.839844 374.847656 181.714844 375.359375 176.589844 C 379.828125 196.117188 373.421875 211.234375 356.140625 221.945312 C 325.390625 237.320312 294.640625 237.320312 263.890625 221.945312 C 243.101562 208.226562 237.71875 190.03125 247.746094 167.363281 C 262.644531 149.648438 281.863281 140.9375 305.402344 141.226562 C 309.792969 141.230469 313.890625 141.742188 317.703125 142.765625 Z M 317.703125 142.765625 " fill-opacity="1" fill-rule="evenodd"/><path fill="#2d2c2f" d="M 366.902344 165.828125 C 370.585938 169.855469 372.121094 174.722656 371.515625 180.433594 C 371.753906 187.65625 369.703125 194.0625 365.363281 199.652344 C 362.757812 199.367188 360.707031 198.085938 359.214844 195.808594 C 366.371094 186.90625 368.933594 176.914062 366.902344 165.828125 Z M 366.902344 165.828125 " fill-opacity="1" fill-rule="evenodd"/><path fill="#f0f3f9" d="M 320.777344 150.453125 C 337.046875 149.175781 351.140625 155.324219 363.058594 168.902344 C 363.699219 166.96875 364.980469 165.945312 366.902344 165.828125 C 368.933594 176.914062 366.371094 186.90625 359.214844 195.808594 C 360.707031 198.085938 362.757812 199.367188 365.363281 199.652344 C 366.753906 200.742188 367.265625 202.28125 366.902344 204.265625 C 364.65625 207.28125 362.09375 210.101562 359.214844 212.71875 C 332.304688 228.835938 304.113281 231.398438 274.652344 220.40625 C 254.457031 212.539062 245.484375 197.929688 247.746094 176.589844 C 264.257812 152.84375 287.0625 143.109375 316.164062 147.375 C 317.394531 154.488281 315.34375 160.382812 310.015625 165.058594 C 304.257812 166.804688 298.621094 168.855469 293.101562 171.207031 C 291.816406 172.761719 291.304688 174.554688 291.5625 176.589844 C 297.195312 175.894531 302.835938 175.125 308.476562 174.28125 C 319.855469 170.25 323.957031 162.308594 320.777344 150.453125 Z M 320.777344 150.453125 " fill-opacity="1" fill-rule="evenodd"/><path fill="#282829" d="M 296.175781 188.890625 C 305.382812 188.085938 308.457031 191.929688 305.402344 200.421875 C 294.261719 202.378906 291.1875 198.535156 296.175781 188.890625 Z M 296.175781 188.890625 " fill-opacity="1" fill-rule="evenodd"/><path fill="#322f31" d="M 260.8125 173.515625 C 258.847656 182.59375 258.847656 191.816406 260.8125 201.1875 C 250.757812 191.921875 250.757812 182.699219 260.8125 173.515625 Z M 260.8125 173.515625 " fill-opacity="1" fill-rule="evenodd"/><path fill="#2d2b2c" d="M 334.613281 155.0625 C 343.121094 163.199219 344.402344 172.425781 338.457031 182.738281 C 330.652344 189.972656 322.195312 190.742188 313.089844 185.046875 C 334.433594 184.992188 341.609375 175 334.613281 155.0625 Z M 334.613281 155.0625 " fill-opacity="1" fill-rule="evenodd"/><path fill="#39393b" d="M 317.703125 142.765625 C 337.8125 143.089844 354.214844 150.777344 366.902344 165.828125 C 364.980469 165.945312 363.699219 166.96875 363.058594 168.902344 C 351.140625 155.324219 337.046875 149.175781 320.777344 150.453125 C 319.183594 148.253906 318.15625 145.691406 317.703125 142.765625 Z M 317.703125 142.765625 " fill-opacity="1" fill-rule="evenodd"/><path fill="#29292a" d="M 423.789062 216.5625 C 448.554688 213.6875 457.265625 224.449219 449.925781 248.851562 C 460.183594 256.351562 461.722656 265.320312 454.539062 275.757812 C 461.898438 280.074219 463.949219 286.226562 460.6875 294.207031 C 467.839844 298.800781 470.148438 305.207031 467.609375 313.425781 C 454.164062 323.609375 440.582031 333.601562 426.863281 343.40625 C 392.738281 366.359375 358.402344 388.910156 323.851562 411.058594 C 314.242188 414.0625 305.015625 413.035156 296.175781 407.984375 C 251.078125 376.722656 205.976562 345.457031 160.875 314.195312 C 154.546875 305.230469 156.085938 297.800781 165.488281 291.902344 C 165.238281 288.277344 165.492188 284.691406 166.257812 281.140625 C 189.945312 260.726562 214.289062 241.253906 239.289062 222.714844 C 240.316406 224.25 241.339844 225.789062 242.363281 227.328125 C 219.703125 242.914062 197.921875 259.824219 177.019531 278.0625 C 172.929688 285.410156 172.160156 293.097656 174.714844 301.125 C 180.054688 306.203125 185.695312 311.070312 191.625 315.734375 C 209.652344 327.808594 227.589844 339.851562 245.4375 351.863281 C 255.738281 360.097656 266.5 367.785156 277.726562 374.925781 C 278.816406 376.316406 280.355469 376.828125 282.339844 376.464844 C 286.363281 382.015625 291.492188 386.628906 297.714844 390.300781 C 298.226562 390.046875 298.738281 389.789062 299.25 389.53125 C 294.984375 382.425781 295.242188 375.507812 300.019531 368.777344 C 300.761719 370.234375 301.019531 371.773438 300.789062 373.390625 C 298.566406 380.964844 299.851562 388.136719 304.632812 394.914062 C 310.566406 399.308594 315.949219 398.792969 320.777344 393.375 C 306.816406 396.863281 300.664062 390.714844 302.328125 374.925781 C 306.066406 361.972656 313.753906 352.234375 325.390625 345.714844 C 353.851562 332.496094 378.453125 314.046875 399.1875 290.363281 C 410.921875 279.398438 422.453125 268.125 433.78125 256.539062 C 437.632812 251.921875 440.707031 246.800781 443.007812 241.164062 C 446.066406 226.542969 440.175781 219.882812 425.328125 221.175781 C 435.660156 218.386719 435.148438 216.851562 423.789062 216.5625 Z M 423.789062 216.5625 " fill-opacity="1" fill-rule="evenodd"/><path fill="#bcc3cf" d="M 377.664062 274.988281 C 383.589844 281.953125 390.765625 287.078125 399.1875 290.363281 C 378.453125 314.046875 353.851562 332.496094 325.390625 345.714844 C 320.621094 340.4375 314.984375 336.335938 308.476562 333.414062 C 318.648438 326.78125 329.414062 320.890625 340.765625 315.734375 C 342.8125 313.683594 344.863281 311.632812 346.914062 309.582031 C 333.585938 315.476562 320.257812 321.882812 306.9375 328.800781 C 307.140625 327.664062 306.882812 326.640625 306.171875 325.726562 C 296.421875 319.304688 287.964844 311.617188 280.800781 302.664062 C 300.609375 310.589844 320.597656 310.847656 340.765625 303.433594 C 353.996094 300.710938 361.683594 292.765625 363.828125 279.601562 C 368.351562 277.75 372.964844 276.214844 377.664062 274.988281 Z M 377.664062 274.988281 " fill-opacity="1" fill-rule="evenodd"/><path fill="#c9ced7" d="M 445.3125 253.464844 C 449.015625 254.71875 450.296875 257.277344 449.15625 261.152344 C 442.101562 266.347656 435.183594 271.726562 428.402344 277.296875 C 427.375 278.320312 426.351562 278.320312 425.328125 277.296875 C 432.914062 270.015625 439.578125 262.070312 445.3125 253.464844 Z M 445.3125 253.464844 " fill-opacity="1" fill-rule="evenodd"/><path fill="#f1f4fa" d="M 242.363281 227.328125 C 250.453125 248.765625 258.394531 270.289062 266.195312 291.902344 C 270.425781 296.441406 275.292969 300.027344 280.800781 302.664062 C 287.964844 311.617188 296.421875 319.304688 306.171875 325.726562 C 306.882812 326.640625 307.140625 327.664062 306.9375 328.800781 C 295.117188 334.582031 286.148438 343.296875 280.03125 354.9375 C 279.265625 361.582031 279.007812 368.246094 279.265625 374.925781 C 278.753906 374.925781 278.238281 374.925781 277.726562 374.925781 C 266.5 367.785156 255.738281 360.097656 245.4375 351.863281 C 251.089844 353.140625 256.472656 353.140625 261.582031 351.863281 C 270.453125 345.621094 270.707031 338.703125 262.351562 331.109375 C 239.882812 315.300781 217.84375 298.902344 196.238281 281.90625 C 191.019531 282.320312 185.890625 281.808594 180.863281 280.371094 C 176.785156 285.484375 175.246094 291.378906 176.25 298.050781 C 176.515625 299.578125 176.003906 300.601562 174.714844 301.125 C 172.160156 293.097656 172.929688 285.410156 177.019531 278.0625 C 197.921875 259.824219 219.703125 242.914062 242.363281 227.328125 Z M 242.363281 227.328125 " fill-opacity="1" fill-rule="evenodd"/><path fill="#a8aeb7" d="M 368.4375 331.875 C 382.742188 317.835938 397.347656 303.996094 412.257812 290.363281 C 413.90625 291.5625 415.703125 291.308594 417.640625 289.59375 C 428.402344 281.652344 439.164062 273.707031 449.925781 265.765625 C 451.789062 269.363281 451.277344 272.695312 448.390625 275.757812 C 422.324219 295.441406 395.671875 314.144531 368.4375 331.875 Z M 368.4375 331.875 " fill-opacity="1" fill-rule="evenodd"/><path fill="#ababad" d="M 439.164062 313.425781 C 440.417969 311.371094 442.210938 309.832031 444.546875 308.8125 C 444.496094 311.855469 442.699219 313.394531 439.164062 313.425781 Z M 439.164062 313.425781 " fill-opacity="1" fill-rule="evenodd"/><path fill="#bfbfc0" d="M 439.164062 313.425781 C 438.4375 315.589844 436.898438 316.613281 434.550781 316.5 C 435.277344 314.339844 436.816406 313.316406 439.164062 313.425781 Z M 439.164062 313.425781 " fill-opacity="1" fill-rule="evenodd"/><path fill="#b5b5b6" d="M 434.550781 316.5 C 433.824219 318.664062 432.285156 319.6875 429.9375 319.578125 C 430.667969 317.414062 432.203125 316.390625 434.550781 316.5 Z M 434.550781 316.5 " fill-opacity="1" fill-rule="evenodd"/><path fill="#3d3b3a" d="M 245.4375 351.863281 C 224.289062 335.890625 202.765625 320.257812 180.863281 304.96875 C 178.894531 302.804688 177.355469 300.496094 176.25 298.050781 C 175.246094 291.378906 176.785156 285.484375 180.863281 280.371094 C 185.890625 281.808594 191.019531 282.320312 196.238281 281.90625 C 217.84375 298.902344 239.882812 315.300781 262.351562 331.109375 C 270.707031 338.703125 270.453125 345.621094 261.582031 351.863281 C 256.472656 353.140625 251.089844 353.140625 245.4375 351.863281 Z M 245.4375 351.863281 " fill-opacity="1" fill-rule="evenodd"/><path fill="#eff2fa" d="M 182.402344 284.214844 C 186.0625 285.628906 189.648438 285.628906 193.164062 284.214844 C 215.496094 301.167969 238.046875 317.824219 260.8125 334.183594 C 266.6875 339.320312 266.6875 344.191406 260.8125 348.789062 C 259.789062 348.277344 258.765625 347.765625 257.738281 347.25 C 255.632812 349.75 253.070312 350.515625 250.050781 349.558594 C 227.925781 333.074219 205.378906 317.183594 182.402344 301.894531 C 178.347656 295.898438 178.347656 290.003906 182.402344 284.214844 Z M 182.402344 284.214844 " fill-opacity="1" fill-rule="evenodd"/><path fill="#aeaeb0" d="M 429.9375 319.578125 C 429.210938 321.738281 427.675781 322.765625 425.328125 322.652344 C 426.054688 320.488281 427.589844 319.464844 429.9375 319.578125 Z M 429.9375 319.578125 " fill-opacity="1" fill-rule="evenodd"/><path fill="#c9cacc" d="M 176.25 298.050781 C 177.355469 300.496094 178.894531 302.804688 180.863281 304.96875 C 202.765625 320.257812 224.289062 335.890625 245.4375 351.863281 C 227.589844 339.851562 209.652344 327.808594 191.625 315.734375 C 185.695312 311.070312 180.054688 306.203125 174.714844 301.125 C 176.003906 300.601562 176.515625 299.578125 176.25 298.050781 Z M 176.25 298.050781 " fill-opacity="1" fill-rule="evenodd"/><path fill="#b0afb1" d="M 425.328125 322.652344 C 424.597656 324.8125 423.0625 325.839844 420.714844 325.726562 C 421.441406 323.566406 422.980469 322.539062 425.328125 322.652344 Z M 425.328125 322.652344 " fill-opacity="1" fill-rule="evenodd"/><path fill="#b5b4b6" d="M 420.714844 325.726562 C 419.988281 327.886719 418.449219 328.914062 416.101562 328.800781 C 416.828125 326.640625 418.367188 325.613281 420.714844 325.726562 Z M 420.714844 325.726562 " fill-opacity="1" fill-rule="evenodd"/><path fill="#a6adb7" d="M 439.164062 287.289062 C 450.367188 289.863281 451.394531 295.246094 442.238281 303.433594 C 402.945312 329.671875 363.484375 355.550781 323.851562 381.078125 C 322.402344 380.910156 321.121094 380.398438 320.007812 379.539062 C 318.671875 373.125 320.980469 368.257812 326.925781 364.933594 C 365.039062 339.863281 402.449219 313.980469 439.164062 287.289062 Z M 439.164062 287.289062 " fill-opacity="1" fill-rule="evenodd"/><path fill="#afafb1" d="M 416.101562 328.800781 C 415.375 330.964844 413.835938 331.988281 411.488281 331.875 C 412.214844 329.714844 413.753906 328.691406 416.101562 328.800781 Z M 416.101562 328.800781 " fill-opacity="1" fill-rule="evenodd"/><path fill="#b0b1b3" d="M 368.4375 331.875 C 367.710938 334.039062 366.175781 335.0625 363.828125 334.953125 C 364.554688 332.789062 366.089844 331.765625 368.4375 331.875 Z M 368.4375 331.875 " fill-opacity="1" fill-rule="evenodd"/><path fill="#bebec0" d="M 411.488281 331.875 C 410.761719 334.039062 409.222656 335.0625 406.875 334.953125 C 407.605469 332.789062 409.140625 331.765625 411.488281 331.875 Z M 411.488281 331.875 " fill-opacity="1" fill-rule="evenodd"/><path fill="#b6b6b8" d="M 406.875 334.953125 C 406.148438 337.113281 404.613281 338.140625 402.265625 338.027344 C 402.992188 335.863281 404.527344 334.839844 406.875 334.953125 Z M 406.875 334.953125 " fill-opacity="1" fill-rule="evenodd"/><path fill="#2f2e2d" d="M 308.476562 333.414062 C 295.476562 338.726562 286.761719 347.949219 282.339844 361.089844 C 281.3125 365.703125 280.289062 370.3125 279.265625 374.925781 C 279.007812 368.246094 279.265625 361.582031 280.03125 354.9375 C 286.148438 343.296875 295.117188 334.582031 306.9375 328.800781 C 320.257812 321.882812 333.585938 315.476562 346.914062 309.582031 C 344.863281 311.632812 342.8125 313.683594 340.765625 315.734375 C 329.414062 320.890625 318.648438 326.78125 308.476562 333.414062 Z M 308.476562 333.414062 " fill-opacity="1" fill-rule="evenodd"/><path fill="#a8a8aa" d="M 402.265625 338.027344 C 398.496094 342.296875 393.882812 345.371094 388.425781 347.25 C 392.230469 343.039062 396.84375 339.960938 402.265625 338.027344 Z M 402.265625 338.027344 " fill-opacity="1" fill-rule="evenodd"/><path fill="#f0f3f9" d="M 308.476562 333.414062 C 314.984375 336.335938 320.621094 340.4375 325.390625 345.714844 C 313.753906 352.234375 306.066406 361.972656 302.328125 374.925781 C 301.300781 374.925781 300.789062 374.414062 300.789062 373.390625 C 301.019531 371.773438 300.761719 370.234375 300.019531 368.777344 C 295.242188 375.507812 294.984375 382.425781 299.25 389.53125 C 298.738281 389.789062 298.226562 390.046875 297.714844 390.300781 C 291.492188 386.628906 286.363281 382.015625 282.339844 376.464844 C 282.339844 371.339844 282.339844 366.214844 282.339844 361.089844 C 286.761719 347.949219 295.476562 338.726562 308.476562 333.414062 Z M 308.476562 333.414062 " fill-opacity="1" fill-rule="evenodd"/><path fill="#afafb1" d="M 388.425781 347.25 C 387.253906 349.960938 385.203125 351.5 382.277344 351.863281 C 383.449219 349.15625 385.5 347.617188 388.425781 347.25 Z M 388.425781 347.25 " fill-opacity="1" fill-rule="evenodd"/><path fill="#a9a9ab" d="M 382.277344 351.863281 C 381.550781 354.027344 380.011719 355.050781 377.664062 354.9375 C 378.390625 352.777344 379.929688 351.753906 382.277344 351.863281 Z M 382.277344 351.863281 " fill-opacity="1" fill-rule="evenodd"/><path fill="#bababb" d="M 377.664062 354.9375 C 376.9375 357.101562 375.398438 358.125 373.050781 358.015625 C 373.777344 355.851562 375.316406 354.828125 377.664062 354.9375 Z M 377.664062 354.9375 " fill-opacity="1" fill-rule="evenodd"/><path fill="#ababad" d="M 373.050781 358.015625 C 372.324219 360.175781 370.785156 361.203125 368.4375 361.089844 C 369.167969 358.925781 370.703125 357.902344 373.050781 358.015625 Z M 373.050781 358.015625 " fill-opacity="1" fill-rule="evenodd"/><path fill="#acabad" d="M 368.4375 361.089844 C 367.710938 363.25 366.175781 364.277344 363.828125 364.164062 C 364.554688 362.003906 366.089844 360.976562 368.4375 361.089844 Z M 368.4375 361.089844 " fill-opacity="1" fill-rule="evenodd"/><path fill="#aaaaac" d="M 363.828125 364.164062 C 363.097656 366.324219 361.5625 367.351562 359.214844 367.238281 C 359.941406 365.078125 361.480469 364.050781 363.828125 364.164062 Z M 363.828125 364.164062 " fill-opacity="1" fill-rule="evenodd"/><path fill="#ababad" d="M 359.214844 367.238281 C 358.488281 369.402344 356.949219 370.425781 354.601562 370.3125 C 355.328125 368.152344 356.867188 367.128906 359.214844 367.238281 Z M 359.214844 367.238281 " fill-opacity="1" fill-rule="evenodd"/><path fill="#b2b1b4" d="M 354.601562 370.3125 C 353.875 372.476562 352.335938 373.5 349.988281 373.390625 C 350.714844 371.226562 352.253906 370.203125 354.601562 370.3125 Z M 354.601562 370.3125 " fill-opacity="1" fill-rule="evenodd"/><path fill="#8b8b8f" d="M 282.339844 361.089844 C 282.339844 366.214844 282.339844 371.339844 282.339844 376.464844 C 280.355469 376.828125 278.816406 376.316406 277.726562 374.925781 C 278.238281 374.925781 278.753906 374.925781 279.265625 374.925781 C 280.289062 370.3125 281.3125 365.703125 282.339844 361.089844 Z M 282.339844 361.089844 " fill-opacity="1" fill-rule="evenodd"/><path fill="#bdbdbf" d="M 349.988281 373.390625 C 349.261719 375.550781 347.722656 376.578125 345.375 376.464844 C 346.105469 374.300781 347.640625 373.277344 349.988281 373.390625 Z M 349.988281 373.390625 " fill-opacity="1" fill-rule="evenodd"/><path fill="#b7b7b9" d="M 345.375 376.464844 C 344.648438 378.625 343.113281 379.652344 340.765625 379.539062 C 341.492188 377.378906 343.027344 376.351562 345.375 376.464844 Z M 345.375 376.464844 " fill-opacity="1" fill-rule="evenodd"/><path fill="#c6c6c8" d="M 363.828125 334.953125 C 348.675781 345.492188 333.554688 356.253906 318.46875 367.238281 C 310.609375 382.863281 314.964844 389.011719 331.539062 385.6875 C 325.832031 391.796875 319.9375 391.796875 313.859375 385.6875 C 310.347656 374.460938 313.679688 365.492188 323.851562 358.78125 C 337.027344 350.449219 350.355469 342.503906 363.828125 334.953125 Z M 363.828125 334.953125 " fill-opacity="1" fill-rule="evenodd"/><path fill="#b8b8b9" d="M 340.765625 379.539062 C 340.035156 381.699219 338.5 382.726562 336.152344 382.613281 C 336.878906 380.453125 338.417969 379.425781 340.765625 379.539062 Z M 340.765625 379.539062 " fill-opacity="1" fill-rule="evenodd"/><path fill="#c4c5c6" d="M 336.152344 382.613281 C 335.425781 384.777344 333.886719 385.800781 331.539062 385.6875 C 332.265625 383.527344 333.804688 382.503906 336.152344 382.613281 Z M 336.152344 382.613281 " fill-opacity="1" fill-rule="evenodd"/><path fill="#c4c4c6" d="M 300.789062 373.390625 C 300.789062 374.414062 301.300781 374.925781 302.328125 374.925781 C 300.664062 390.714844 306.816406 396.863281 320.777344 393.375 C 315.949219 398.792969 310.566406 399.308594 304.632812 394.914062 C 299.851562 388.136719 298.566406 380.964844 300.789062 373.390625 Z M 300.789062 373.390625 " fill-opacity="1" fill-rule="evenodd"/></svg>